<?xml version="1.0" encoding="utf-8"?>
<!-- Generator: Adobe Illustrator 15.0.0, SVG Export Plug-In . SVG Version: 6.00 Build 0)  -->
<!DOCTYPE svg PUBLIC "-//W3C//DTD SVG 1.1//EN" "http://www.w3.org/Graphics/SVG/1.1/DTD/svg11.dtd">
<svg version="1.1" id="Layer_3" xmlns="http://www.w3.org/2000/svg" xmlns:xlink="http://www.w3.org/1999/xlink" x="0px" y="0px"
	 width="800px" height="800px" viewBox="-45.75 -107.25 800 800" enable-background="new -45.75 -107.25 800 800"
	 xml:space="preserve">
<path fill="#4594BD" d="M9.016,461.818c11.98,7.543,35.497,15.974,55.02,15.974c23.96,0,34.609-10.205,34.609-24.404
	c0-14.643-8.874-21.741-35.497-31.503c-42.153-14.199-59.458-37.272-59.458-63.007c0-38.159,31.503-67.444,81.643-67.444
	c23.96,0,44.815,5.769,57.683,12.867l-11.093,38.159c-8.874-5.324-26.623-12.424-45.702-12.424
	c-19.523,0-30.172,9.762-30.172,23.073c0,13.755,10.206,19.967,37.715,30.172c39.49,13.756,57.239,33.723,57.683,65.67
	c0,39.49-30.616,67.888-87.855,67.888c-26.179,0-49.695-6.212-65.669-15.087L9.016,461.818z"/>
<g>
	<g>
		<g>
			<path fill="#4594BD" d="M323.604,213.341h-69.663l-91.802,286.456c20.779-8.851,40.432-11.791,58.818-8.82l19.229-63.324h94.511
				l20.082,62.883c14.528,0.295,25.958-1.133,34.507-4.798c6.391-2.812,13.412-4.828,20.835-6.128L323.604,213.341z
				 M249.061,386.388l23.073-73.656c4.881-17.748,9.762-38.603,14.198-55.907h0.888c4.438,17.305,9.318,37.716,15.086,55.907
				l23.517,73.656H249.061z"/>
		</g>
	</g>
</g>
<path fill="#4594BD" d="M542.348,456.944c17.305,10.205,44.371,19.079,72.324,19.079c34.609,0,54.133-16.417,54.133-40.821
	c0-22.629-15.086-35.94-52.802-49.695c-49.695-17.748-81.198-43.928-81.198-86.967c0-49.252,40.821-86.08,106.047-86.08
	c32.391,0,55.907,7.1,71.437,15.086l-12.867,43.928c-11.093-5.769-31.947-14.199-59.9-14.199c-34.61,0-49.252,18.192-49.252,35.94
	c0,23.073,17.305,33.723,57.238,49.252c51.914,19.523,76.762,45.702,76.762,88.742c0,48.364-36.384,90.073-113.146,90.073
	c-31.946,0-64.781-8.874-81.198-19.08L542.348,456.944z"/>
<path fill="#4594BD" d="M498.866,213.341H444.29v264.946c18.652,1.472,37.735,6.19,54.576,13.302V213.341z"/>
<path id="node21" fill="#5EC7FF" d="M389.286,505.737c-10.937,4.689-26.564,5.729-47.401,4.166
	c-21.879-2.082-39.067-0.52-56.256,5.732c-22.923,7.813-26.569,7.813-47.406,0c-27.088-10.418-57.3-6.774-90.116,10.938
	c-64.595,35.422-84.388,40.111-138.041,32.816l-26.045-3.647l18.232,7.812c32.816,15.109,66.675,15.109,106.268,0
	c37.502-14.061,50.524-17.188,41.672-8.851c-8.856,8.851-69.286,26.565-90.639,26.565c-13.024,0-20.318,2.085-18.232,5.21
	c5.208,8.854,51.572,5.726,83.864-5.729c44.278-15.628,75.013-25.008,75.013-22.404c0,1.044-9.899,7.297-22.398,14.591
	c-42.716,25.521-124.5,35.939-162.006,20.836c-6.771-2.604-8.852-2.085-6.771,1.562c2.085,3.123,19.275,8.332,39.067,11.979
	c36.464,6.253,63.553,2.086,152.107-23.439c42.191-12.505,102.62-1.562,173.984,31.254c63.029,28.649,118.243,38.55,146.374,26.045
	c8.333-3.646,4.166-5.21-19.274-7.814c-30.211-3.646-67.194-19.274-70.841-30.21c-1.042-3.13,4.166-7.296,11.461-9.376
	c9.376-2.085,20.835,1.562,41.147,13.022c18.757,10.937,35.421,16.146,49.487,16.146c29.174,0,31.777-8.331,4.689-13.541
	l-21.879-4.172l32.297-2.079c28.125-1.562,38.545,1.043,75.532,17.188c26.565,11.98,54.172,19.793,71.884,21.356l28.65,2.085
	l-25.526-8.856c-14.061-5.209-26.564-12.498-28.126-16.146c-1.562-5.733-0.524-5.733,8.857,0c9.375,5.727,11.979,5.21,19.794-2.087
	c12.498-13.022,4.165-45.319-15.109-55.737c-11.98-6.771-18.232-7.29-44.277-1.038c-16.671,3.642-42.191,7.814-56.776,9.375
	c-26.046,2.604-27.087,2.081-32.297-13.021C535.141,512.508,441.377,482.815,389.286,505.737z M495.553,518.759
	c30.731,13.543,48.444,32.299,48.444,52.093c0,19.273-11.98,20.836-23.441,3.121c-5.209-8.33-11.46-11.455-18.231-9.893
	c-6.253,1.562-11.462-1.562-15.627-8.855c-4.166-7.815-8.856-9.901-16.146-7.815c-6.251,2.085-10.942,0.518-13.022-4.691
	c-1.567-4.684-7.294-8.331-13.022-8.331c-5.21,0-11.461-3.123-13.547-6.771c-2.081-3.127-9.375-6.252-15.628-6.252
	c-18.231,0-14.584-9.898,4.691-13.543C442.938,503.651,468.466,507.298,495.553,518.759z M369.493,524.489
	c32.297,8.854,60.423,30.735,58.86,45.842c-1.041,6.772-5.209,13.543-9.375,14.061c-4.166,1.043-13.021,3.129-19.273,4.69
	c-8.333,2.605-13.022,0.518-17.709-6.771c-5.209-8.339-10.418-9.898-21.879-7.813c-10.941,2.079-16.671,0.519-20.317-5.734
	c-3.647-6.246-6.771-7.288-14.585-3.121c-7.814,4.165-11.46,3.121-17.713-5.729c-4.685-7.295-9.894-9.381-14.584-6.775
	c-9.894,6.252-56.257,7.813-56.257,2.087c0-6.253,26.563-20.318,54.695-29.17C317.921,517.717,342.928,517.197,369.493,524.489z
	 M244.475,529.178c1.561,2.604-0.52,5.209-5.209,5.209c-4.167,0-12.504,2.605-17.713,6.252c-5.729,3.647-13.541,4.166-19.271,1.562
	c-5.732-2.604-20.316-4.167-33.339-3.647l-23.441,1.043l15.627-7.814C178.842,523.449,239.784,521.364,244.475,529.178z
	 M686.729,577.104c4.685,6.251,8.331,15.626,8.331,20.836c0,10.418-11.46,18.749-14.583,10.418
	c-1.045-3.649-7.813-6.253-14.584-6.253c-7.814,0-12.506-3.123-12.506-7.813c0-5.728-3.646-7.295-12.503-4.691
	c-6.771,1.569-13.541,0.525-15.628-2.079c-1.561-2.604-9.374-3.646-17.188-2.086c-19.275,3.129-13.542-2.08,11.979-11.462
	C651.827,561.995,677.348,563.555,686.729,577.104z"/>
<path fill="#2A4452" d="M195.476-43.613l31.922,31.414"/>
<path fill="#85D4FF" d="M164.762-12.899l32.441,32.95"/>
<path fill="#85D4FF" d="M133.22,16.987l91.307-91.307l33.212,33.213l-91.309,91.307L133.22,16.987z"/>
<path fill="#85D4FF" d="M142.348,32.758l9.961,9.964"/>
<path fill="#85D4FF" d="M95.863,79.25l9.962,9.962"/>
<g>
	<path fill="none" stroke="#85D4FF" stroke-width="12" d="M180.533,207.576c53.853-7.942,81.645-40.686,90.977-90.977"/>
	<path fill="none" stroke="#85D4FF" stroke-width="12" d="M180.533,169.272c30.779-4.428,48.519-20.233,52.671-52.672"/>
	<path fill="none" stroke="#85D4FF" stroke-width="12" d="M180.533,140.541c16.742-4.558,22.151-13.435,23.941-23.941"/>
</g>
<path fill="#85D4FF" d="M148.984,102.493l29.051,12.451l-12.452-29.051"/>
<path fill="#85D4FF" d="M183.753,65.688c5.731,5.731-1.702,22.457-16.603,37.357c-14.903,14.902-31.626,22.335-37.358,16.603
	c-5.732-5.73,1.703-22.456,16.603-37.358C161.297,67.39,178.021,59.959,183.753,65.688z"/>
<path fill="#85D4FF" d="M80.913,57.663l7.409-7.534l-4.089-4.088l24.903-24.904l4.151,4.151l8.301-8.301l43.644,44.249
	l-40.782,40.78L80.913,57.663z"/>
<path fill="#85D4FF" d="M51.026,100.83l32.181,32.18"/>
<path fill="#2A4452" d="M19.157,125.766l31.921,32.111"/>
<path fill="#85D4FF" d="M-11.23,161.432l91.308-91.308l33.211,33.211l-91.308,91.307L-11.23,161.432z"/>
</svg>
